<?xml version="1.0" encoding="UTF-8"?>
<svg version="1.1" xmlns="http://www.w3.org/2000/svg" width="250" height="53">
<path d="M0 0 C4.77706936 3.87771889 8.37059549 8.16157122 9.59765625 14.296875 C10.07198015 18.99699365 10.06652676 22.78060748 7.91015625 27.046875 C7.47703125 28.119375 7.04390625 29.191875 6.59765625 30.296875 C7.94297384 32.99265783 7.94297384 32.99265783 9.59765625 35.296875 C8.40269531 35.67779297 8.40269531 35.67779297 7.18359375 36.06640625 C6.12398437 36.41058594 5.064375 36.75476562 3.97265625 37.109375 C2.92851563 37.44582031 1.884375 37.78226563 0.80859375 38.12890625 C-2.42384609 39.20481721 -2.42384609 39.20481721 -5.27734375 40.921875 C-9.27192951 42.67949273 -12.47787387 42.63598379 -16.77734375 42.484375 C-17.51339844 42.47083984 -18.24945312 42.45730469 -19.0078125 42.44335938 C-20.80631118 42.40832369 -22.60442797 42.35452788 -24.40234375 42.296875 C-24.40234375 42.956875 -24.40234375 43.616875 -24.40234375 44.296875 C-29.35234375 44.791875 -29.35234375 44.791875 -34.40234375 45.296875 C-36.99652465 40.10851321 -35.20591673 33.69417287 -33.7421875 28.375 C-33.35519425 26.00855854 -33.73099784 24.57854385 -34.40234375 22.296875 C-34.95754121 15.74554496 -33.92626159 10.91019545 -30.40234375 5.296875 C-22.59721385 -3.79264336 -10.40505516 -6.789114 0 0 Z M-28.40234375 5.171875 C-32.14783785 11.02420952 -33.21378903 16.43762658 -32.40234375 23.296875 C-30.68535494 27.45379527 -28.55951204 29.55666502 -24.40234375 31.296875 C-21.4184867 31.11919025 -21.4184867 31.11919025 -18.40234375 30.296875 C-16.40234375 29.96354167 -14.40234375 29.63020833 -12.40234375 29.296875 C-13.51609375 28.2140625 -13.51609375 28.2140625 -14.65234375 27.109375 C-19.4434283 22.20940216 -22.00231747 19.36400586 -22.40234375 12.296875 C-22.07234375 11.636875 -21.74234375 10.976875 -21.40234375 10.296875 C-17.61050477 9.36998103 -15.11345573 9.369097 -11.40234375 10.296875 C-10.39171875 10.11125 -9.38109375 9.925625 -8.33984375 9.734375 C-5.40234375 9.296875 -5.40234375 9.296875 -2.40234375 11.296875 C-1.77734375 14.421875 -1.77734375 14.421875 -2.40234375 18.296875 C-4.03349172 20.60040457 -5.80665613 22.57524874 -7.7734375 24.59765625 C-9.48479522 26.21501204 -9.48479522 26.21501204 -10.40234375 28.296875 C-9.08234375 28.296875 -7.76234375 28.296875 -6.40234375 28.296875 C-6.73234375 29.946875 -7.06234375 31.596875 -7.40234375 33.296875 C-6.41234375 33.296875 -5.42234375 33.296875 -4.40234375 33.296875 C-3.80421875 32.6575 -3.20609375 32.018125 -2.58984375 31.359375 C-0.40234375 29.296875 -0.40234375 29.296875 2.72265625 28.859375 C5.70368443 28.61901687 5.70368443 28.61901687 6.97265625 26.359375 C8.38036086 19.46162241 8.54600087 13.36040423 4.59765625 7.296875 C4.06140625 6.430625 3.52515625 5.564375 2.97265625 4.671875 C-1.19067638 0.50854237 -6.05995341 -1.36241368 -11.83984375 -2.203125 C-17.98437772 -1.34073427 -24.15810943 0.40025061 -28.40234375 5.171875 Z M-19.40234375 10.296875 C-21.76882498 12.20128376 -21.76882498 12.20128376 -21.46484375 15.484375 C-20.12239665 20.30139106 -17.67629847 23.60684967 -13.40234375 26.296875 C-10.82077417 26.15262545 -9.68080915 25.52871661 -7.69921875 23.87890625 C-5.03670057 20.83314681 -3.51907984 19.07025159 -2.90234375 14.984375 C-3.16640764 12.15558278 -3.16640764 12.15558278 -5.40234375 10.296875 C-8.69949168 10.62658979 -10.02502765 10.9195589 -12.40234375 13.296875 C-13.02109375 12.554375 -13.02109375 12.554375 -13.65234375 11.796875 C-15.52436713 9.86301408 -15.52436713 9.86301408 -19.40234375 10.296875 Z M-15.90234375 31.046875 C-17.0625 31.28664062 -17.0625 31.28664062 -18.24609375 31.53125 C-20.68534392 32.39736057 -21.82476057 33.25853737 -23.40234375 35.296875 C-23.65304288 37.92258204 -23.65304288 37.92258204 -23.40234375 40.296875 C-18.99552609 42.50028383 -13.10368518 41.07610286 -8.40234375 40.296875 C-5.41054983 39.19876338 -2.66001692 37.9319963 0.16015625 36.453125 C2.65318522 35.27053433 4.88163613 34.72367816 7.59765625 34.296875 C6.93765625 33.636875 6.27765625 32.976875 5.59765625 32.296875 C2.89501961 32.59063985 0.37026238 33.07002469 -2.23828125 33.8359375 C-4.91930305 34.40698546 -7.4135503 34.39197968 -10.15234375 34.359375 C-11.1371875 34.35035156 -12.12203125 34.34132813 -13.13671875 34.33203125 C-13.884375 34.32042969 -14.63203125 34.30882812 -15.40234375 34.296875 C-13.09234375 33.306875 -10.78234375 32.316875 -8.40234375 31.296875 C-11.60080531 30.23072115 -12.70495297 30.34344903 -15.90234375 31.046875 Z " fill="#00AAB1" transform="translate(37.40234375,5.703125)"/>
<path d="M0 0 C0.86882812 0.00386719 1.73765625 0.00773438 2.6328125 0.01171875 C4.875 0.3125 4.875 0.3125 6.875 2.3125 C6.5 4.9375 6.5 4.9375 5.875 7.3125 C3.20833333 7.97916667 0.54166667 8.64583333 -2.125 9.3125 C-2.16741723 11.64544775 -2.16592937 13.97952567 -2.125 16.3125 C-1.795 16.6425 -1.465 16.9725 -1.125 17.3125 C-0.155625 17.27125 0.81375 17.23 1.8125 17.1875 C3.3284375 17.249375 3.3284375 17.249375 4.875 17.3125 C7.0269437 20.54041555 7.07586443 21.59650809 6.875 25.3125 C3.16176584 27.16911708 -1.07213442 26.75219768 -5.125 26.3125 C-8.1875 24.8125 -8.1875 24.8125 -10.125 22.3125 C-10.81406883 19.57710555 -10.98274641 17.15757189 -11.125 14.3125 C-11.785 14.3125 -12.445 14.3125 -13.125 14.3125 C-14.13768859 18.11008221 -14.13768859 20.51491779 -13.125 24.3125 C-16.82626859 26.78001239 -18.74723532 26.61971156 -23.125 26.3125 C-26.50531589 25.12482145 -27.05716817 24.41424775 -29.125 21.3125 C-29.66612221 12.78982513 -29.66612221 12.78982513 -27.125 9.3125 C-23.37452518 6.81218346 -21.56643734 6.77646446 -17.125 7.3125 C-14.1875 9.8125 -14.1875 9.8125 -12.125 12.3125 C-11.95484375 11.69761719 -11.7846875 11.08273438 -11.609375 10.44921875 C-11.36703125 9.64097656 -11.1246875 8.83273438 -10.875 8 C-10.64296875 7.19949219 -10.4109375 6.39898437 -10.171875 5.57421875 C-8.00454853 0.89182314 -4.94304985 -0.09590992 0 0 Z M-21.125 13.3125 C-21.455 13.9725 -21.785 14.6325 -22.125 15.3125 C-21.465 15.3125 -20.805 15.3125 -20.125 15.3125 C-20.455 14.6525 -20.785 13.9925 -21.125 13.3125 Z " fill="#00A8B0" transform="translate(136.125,10.6875)"/>
<path d="M0 0 C2.97 0.495 2.97 0.495 6 1 C6 1.99 6 2.98 6 4 C6.99 4 7.98 4 9 4 C10.125 7.75 10.125 7.75 9 10 C8.01 10 7.02 10 6 10 C6 14.29 6 18.58 6 23 C3.69 23 1.38 23 -1 23 C-1 18.71 -1 14.42 -1 10 C-1.99 10 -2.98 10 -4 10 C-4.33 10.66 -4.66 11.32 -5 12 C-6.65 11.67 -8.3 11.34 -10 11 C-10.33 12.65 -10.66 14.3 -11 16 C-9.02 16 -7.04 16 -5 16 C-4.67 17.98 -4.34 19.96 -4 22 C-7.13871188 23.56935594 -9.53855822 23.35201103 -13 23 C-15.93715662 20.76520692 -17.56762386 19.02689333 -19 15.625 C-19 11.86112694 -17.74270569 9.29869292 -16 6 C-12.32312983 3.54875322 -10.33872783 3.84504543 -6 4 C-5.01 4 -4.02 4 -3 4 C-2.34 4 -1.68 4 -1 4 C-0.67 2.68 -0.34 1.36 0 0 Z " fill="#00A9AF" transform="translate(238,14)"/>
<path d="M0 0 C0.886875 -0.01417969 1.77375 -0.02835938 2.6875 -0.04296875 C5 0.1875 5 0.1875 7 2.1875 C6.625 4.8125 6.625 4.8125 6 7.1875 C2 8.1875 2 8.1875 -2 9.1875 C-2.04241723 11.52044775 -2.04092937 13.85452567 -2 16.1875 C-1.67 16.5175 -1.34 16.8475 -1 17.1875 C-0.030625 17.14625 0.93875 17.105 1.9375 17.0625 C3.4534375 17.124375 3.4534375 17.124375 5 17.1875 C7 20.1875 7 20.1875 6.6875 22.8125 C6 25.1875 6 25.1875 5 26.1875 C0.27095653 26.72170676 -3.7343645 26.84668516 -8 24.625 C-11.38220913 20.50293263 -12.27564565 16.36344188 -11.875 11.125 C-11.22770615 7.11645739 -9.55273106 4.35907495 -7 1.1875 C-4.52224905 -0.05137548 -2.76346293 0.02008331 0 0 Z " fill="#00A9B0" transform="translate(66,10.8125)"/>
<path d="M0 0 C3.1875 -0.328125 3.1875 -0.328125 7 -0.25 C8.258125 -0.23453125 9.51625 -0.2190625 10.8125 -0.203125 C14 0 14 0 16 1 C17.2062252 4.61867559 17.10816918 7.92506251 17.0625 11.6875 C17.05798828 12.38939453 17.05347656 13.09128906 17.04882812 13.81445312 C17.03706927 15.54300538 17.01913454 17.27151365 17 19 C14.69 19 12.38 19 10 19 C10 15.04 10 11.08 10 7 C9.34 7 8.68 7 8 7 C8 10.96 8 14.92 8 19 C5.69 19 3.38 19 1 19 C1 15.04 1 11.08 1 7 C0.34 7 -0.32 7 -1 7 C-1.625 5.1875 -1.625 5.1875 -2 3 C-1.34 2.01 -0.68 1.02 0 0 Z " fill="#00A8B0" transform="translate(164,18)"/>
<path d="M0 0 C2.45862401 -0.05383848 4.9160755 -0.09359038 7.375 -0.125 C8.42300781 -0.15013672 8.42300781 -0.15013672 9.4921875 -0.17578125 C11.32897486 -0.19344267 13.16601963 -0.10303261 15 0 C17.85757549 2.85757549 17.95512012 4.9928428 18.1328125 8.98046875 C18.13023437 10.03878906 18.12765625 11.09710938 18.125 12.1875 C18.12886719 13.78658203 18.12886719 13.78658203 18.1328125 15.41796875 C18 18 18 18 17 19 C15.02 19 13.04 19 11 19 C11 15.04 11 11.08 11 7 C10.01 7 9.02 7 8 7 C8 10.96 8 14.92 8 19 C6.02 19 4.04 19 2 19 C0.30802581 17.30802581 0.67342066 15.06640459 0.5 12.75 C0.28052493 9.84979376 0.02385039 7.1098373 -0.59375 4.265625 C-1 2 -1 2 0 0 Z " fill="#00A9B0" transform="translate(183,18)"/>
<path d="M0 0 C1.32644531 -0.05607422 1.32644531 -0.05607422 2.6796875 -0.11328125 C5.125 0.3125 5.125 0.3125 6.93359375 2.06640625 C8.81245627 5.60852411 8.32304533 8.35159331 8.125 12.3125 C8.785 12.3125 9.445 12.3125 10.125 12.3125 C10.125 14.2925 10.125 16.2725 10.125 18.3125 C6.75525113 19.2110997 3.47058822 19.46102081 0 19.5625 C-0.84820312 19.58828125 -1.69640625 19.6140625 -2.5703125 19.640625 C-4.875 19.3125 -4.875 19.3125 -6.65625 18.015625 C-8.68544863 15.17994998 -8.23469953 12.6696956 -7.875 9.3125 C-6.89479625 8.2930881 -5.89696992 7.29003644 -4.875 6.3125 C-5.19541397 3.70969432 -5.19541397 3.70969432 -5.875 1.3125 C-4.21607528 -0.34642472 -2.27452582 0.06263187 0 0 Z M-0.875 11.3125 C-0.875 11.9725 -0.875 12.6325 -0.875 13.3125 C-0.215 13.3125 0.445 13.3125 1.125 13.3125 C1.125 12.6525 1.125 11.9925 1.125 11.3125 C0.465 11.3125 -0.195 11.3125 -0.875 11.3125 Z " fill="#00A9AF" transform="translate(81.875,17.6875)"/>
<path d="M0 0 C3.35257489 2.14908647 3.89145337 3.57356681 4.875 7.4375 C5.00257051 11.07325968 4.81727399 12.88467316 3 16 C0.70086205 18.38125002 -0.65966037 18.94206985 -3.9375 19.5 C-8.1102345 18.81873722 -9.46601717 17.33037744 -12 14 C-13.45606772 9.43765449 -12.97100669 6.33621471 -11 2 C-7.3115914 -0.45893906 -4.28260461 -0.6821084 0 0 Z M-5 7 C-5 8.65 -5 10.3 -5 12 C-4.01 11.67 -3.02 11.34 -2 11 C-2.33 9.68 -2.66 8.36 -3 7 C-3.66 7 -4.32 7 -5 7 Z " fill="#00A8B0" transform="translate(157,18)"/>
<path d="M0 0 C2.5 2.1875 2.5 2.1875 4 5 C3.84077523 8.42333251 3.4368763 9.5631237 1 12 C1.66 12.66 2.32 13.32 3 14 C2.46428571 17.53571429 2.46428571 17.53571429 1 19 C-7.83513097 19.43451464 -7.83513097 19.43451464 -11 17 C-13.54358968 13.56615393 -13.2960629 10.14488056 -13 6 C-12.15712242 3.40112747 -11.49709737 2.36822027 -9.3125 0.75 C-5.98504314 -0.3291752 -3.47410614 -0.43426327 0 0 Z M-5 6 C-5 6.66 -5 7.32 -5 8 C-4.34 8 -3.68 8 -3 8 C-3 7.34 -3 6.68 -3 6 C-3.66 6 -4.32 6 -5 6 Z " fill="#00A8B0" transform="translate(215,18)"/>
<path d="M0 0 C2 0.33333333 4 0.66666667 6 1 C6.33 0.67 6.66 0.34 7 0 C8.66617115 -0.04063832 10.33388095 -0.042721 12 0 C12.93423645 3.01031744 13.04449911 3.86650268 12 7 C10.68 7 9.36 7 8 7 C8 10.96 8 14.92 8 19 C5.69 19 3.38 19 1 19 C1 15.04 1 11.08 1 7 C0.34 7 -0.32 7 -1 7 C-1.04254356 5.00045254 -1.04080783 2.99958364 -1 1 C-0.67 0.67 -0.34 0.34 0 0 Z " fill="#00A9B0" transform="translate(94,18)"/>
<path d="M0 0 C0 0.66 0 1.32 0 2 C-0.9075 2.391875 -1.815 2.78375 -2.75 3.1875 C-6.14118394 5.0787372 -7.79032837 6.8554673 -10 10 C-10.66 9.67 -11.32 9.34 -12 9 C-11.0919838 7.86800647 -10.17316174 6.74467637 -9.25 5.625 C-8.73953125 4.99851562 -8.2290625 4.37203125 -7.703125 3.7265625 C-5.40193949 1.3937093 -3.32507703 0 0 0 Z " fill="#009FA5" transform="translate(18,4)"/>
</svg>
